<svg width="35" height="33" viewBox="0 0 35 33" fill="none" xmlns="http://www.w3.org/2000/svg">
<g id="002-delivery-truck 1">
<g id="Delivery-Truck">
<path id="Vector" d="M26.4136 12.6718H24.5067L25.0812 6.47803C25.0823 6.46681 25.0825 6.45575 25.0826 6.4447C25.0826 6.44376 25.0827 6.44287 25.0827 6.44192C25.0827 6.44176 25.0827 6.44165 25.0827 6.44148C25.0827 6.2729 24.9744 6.12432 24.8152 6.05972C24.8138 6.05916 24.8125 6.0585 24.8111 6.05794C24.8013 6.05405 24.791 6.05072 24.7807 6.0475C24.7769 6.04633 24.7732 6.04489 24.7694 6.04378C24.761 6.04139 24.7523 6.0395 24.7438 6.03756C24.7377 6.03622 24.7319 6.03461 24.7258 6.0335C24.7183 6.03211 24.7105 6.03122 24.7028 6.03017C24.6956 6.02917 24.6885 6.028 24.6812 6.02739C24.68 6.02728 24.6789 6.02706 24.6776 6.02695C24.6698 6.02628 24.6621 6.02639 24.6544 6.02611C24.6492 6.02595 24.6441 6.02539 24.6389 6.02539H24.6333C24.6328 6.02539 24.6324 6.02539 24.632 6.02539H15.559C15.314 6.02539 15.1153 6.21202 15.1153 6.44198C15.1153 6.67138 15.314 6.85857 15.559 6.85857H24.1553L23.2723 16.3776C23.2722 16.3783 23.2722 16.3791 23.272 16.3798L23.0493 18.7816H7.63237L7.89024 16.2822H10.8257C11.0708 16.2822 11.2694 16.0957 11.2694 15.8656C11.2694 15.6355 11.0708 15.449 10.8257 15.449H7.97625L8.52074 10.1725H13.1927C13.4378 10.1725 13.6364 9.98598 13.6364 9.75591C13.6364 9.52585 13.4378 9.33932 13.1927 9.33932H8.60675L8.86278 6.85857H13.7842C14.0286 6.85857 14.2279 6.67138 14.2279 6.44198C14.2279 6.21202 14.0286 6.02539 13.7842 6.02539H8.4601C8.45987 6.02539 8.45969 6.02545 8.45945 6.02545C8.25104 6.02539 8.07026 6.16314 8.02654 6.35411C8.02624 6.3555 8.02571 6.35683 8.02541 6.35822C8.02317 6.3686 8.02169 6.37921 8.02021 6.38988C8.01979 6.39327 8.01903 6.39649 8.01867 6.39988C8.01861 6.40054 8.01843 6.40115 8.01837 6.40182L7.71525 9.33932H2.33675C2.09166 9.33932 1.89307 9.52585 1.89307 9.75591C1.89307 9.98598 2.09166 10.1725 2.33675 10.1725H7.62924L7.08476 15.449H5.50177C5.25668 15.449 5.05809 15.6355 5.05809 15.8656C5.05809 16.0957 5.25668 16.2822 5.50177 16.2822H6.9988L6.70231 19.155C6.70225 19.1555 6.70225 19.1559 6.70219 19.1563L6.24378 23.5988C6.24372 23.5993 6.24366 23.5998 6.2436 23.6003L6.24342 23.6019C6.24283 23.6076 6.24289 23.6133 6.24254 23.6191C6.24212 23.6268 6.24129 23.6343 6.24129 23.642C6.24129 23.6424 6.24135 23.6427 6.24135 23.6431C6.24135 23.6538 6.24218 23.6644 6.24301 23.6749C6.24336 23.6783 6.24325 23.6817 6.24366 23.6851C6.24484 23.6959 6.2468 23.7065 6.24887 23.717C6.24946 23.7201 6.24975 23.7233 6.2504 23.7263C6.25212 23.7343 6.25455 23.7421 6.25679 23.7499C6.25833 23.7554 6.25957 23.761 6.26135 23.7664C6.26188 23.7679 6.26259 23.7693 6.26306 23.7709C6.28454 23.8329 6.32098 23.8885 6.36854 23.934C6.36943 23.9348 6.37014 23.9357 6.37103 23.9365C6.37576 23.941 6.38091 23.945 6.38587 23.9492C6.41646 23.9755 6.45101 23.9978 6.48881 24.0153C6.49668 24.019 6.50443 24.0228 6.51247 24.026C6.5149 24.027 6.5175 24.0277 6.51998 24.0286C6.53111 24.0327 6.54229 24.0367 6.55382 24.0401C6.55489 24.0404 6.55589 24.0406 6.55696 24.0409C6.57009 24.0446 6.58334 24.0478 6.59689 24.0504C6.59866 24.0507 6.6005 24.0508 6.60221 24.0512C6.61511 24.0534 6.62806 24.0554 6.64126 24.0566C6.64155 24.0566 6.64179 24.0567 6.64208 24.0567C6.65664 24.0581 6.67107 24.0587 6.68539 24.0587C6.68556 24.0587 6.6858 24.0587 6.68604 24.0587H8.66118C8.87929 25.6113 10.297 26.8139 12.0093 26.8139C13.7215 26.8139 15.1392 25.6113 15.3573 24.0587H22.4738C22.692 25.6113 24.1097 26.8139 25.8219 26.8139C27.5341 26.8139 28.9519 25.6113 29.1701 24.0587H31.1457C31.146 24.0587 31.1463 24.0587 31.1466 24.0587C31.1614 24.0587 31.176 24.0579 31.1904 24.0566C31.193 24.0563 31.1955 24.0558 31.1981 24.0556C31.2096 24.0543 31.2211 24.0528 31.2323 24.0507C31.2372 24.0498 31.2419 24.0486 31.2467 24.0475C31.2554 24.0456 31.2641 24.0436 31.2726 24.0412C31.2784 24.0396 31.2841 24.0377 31.2897 24.0359C31.297 24.0336 31.3043 24.0311 31.3114 24.0284C31.3176 24.0261 31.3235 24.0236 31.3294 24.0211C31.3359 24.0183 31.3424 24.0154 31.3488 24.0123C31.3548 24.0095 31.3606 24.0065 31.3664 24.0033C31.3725 24 31.3785 23.9966 31.3845 23.993C31.3901 23.9897 31.3956 23.9863 31.4009 23.9827C31.407 23.9788 31.4127 23.9746 31.4186 23.9704C31.4234 23.9668 31.4283 23.9632 31.4331 23.9595C31.4392 23.9546 31.4449 23.9496 31.4507 23.9444C31.4547 23.9408 31.4589 23.9373 31.4628 23.9335C31.469 23.9276 31.4748 23.9214 31.4807 23.9151C31.4838 23.9117 31.4871 23.9084 31.4901 23.905C31.4966 23.8974 31.5025 23.8896 31.5084 23.8818C31.5104 23.8791 31.5127 23.8765 31.5146 23.8738C31.5219 23.8636 31.5287 23.8532 31.5349 23.8424C31.5354 23.8417 31.5359 23.8411 31.5362 23.8404C31.5429 23.8288 31.549 23.817 31.5545 23.8048C31.5561 23.8013 31.5572 23.7977 31.5587 23.7942C31.5623 23.7856 31.5659 23.7769 31.5689 23.768C31.5708 23.7622 31.5723 23.7563 31.574 23.7505C31.5759 23.7435 31.578 23.7366 31.5797 23.7296C31.5811 23.7233 31.5821 23.7168 31.5832 23.7105C31.5842 23.7048 31.5855 23.6993 31.5863 23.6936C31.6051 23.5521 31.9525 20.9349 32.1077 19.2425C32.1079 19.2409 32.1079 19.2392 32.1081 19.2376C32.1528 18.7498 32.1814 18.339 32.1814 18.0875C32.1814 15.1013 29.594 12.6718 26.4136 12.6718ZM24.4294 13.5051H26.2445L26.0127 16.0044H24.1976L24.4294 13.5051ZM12.0094 25.9806C10.636 25.9806 9.5186 24.9315 9.5186 23.642C9.5186 22.3524 10.636 21.3033 12.0094 21.3033C13.3828 21.3033 14.5002 22.3524 14.5002 23.642C14.5002 24.9315 13.3828 25.9806 12.0094 25.9806ZM25.8219 25.9806C24.4485 25.9806 23.3312 24.9315 23.3312 23.642C23.3312 22.3524 24.4486 21.3033 25.8219 21.3033C27.1953 21.3033 28.3127 22.3524 28.3127 23.642C28.3127 24.9315 27.1953 25.9806 25.8219 25.9806ZM30.7537 23.2252H29.1702C28.9521 21.6725 27.5344 20.4698 25.822 20.4698C24.1098 20.4698 22.692 21.6725 22.474 23.2252H15.3575C15.1394 21.6725 13.7217 20.4698 12.0094 20.4698C10.2971 20.4698 8.87929 21.6725 8.66124 23.2252H7.17379L7.54642 19.6146H23.4558V19.6148C23.4561 19.6148 23.4563 19.6148 23.4565 19.6148C23.4713 19.6148 23.4861 19.614 23.5006 19.6126C23.5033 19.6124 23.506 19.6118 23.5087 19.6115C23.5203 19.6102 23.5319 19.6087 23.5432 19.6066C23.5481 19.6056 23.5529 19.6043 23.5578 19.6032C23.5666 19.6012 23.5755 19.5993 23.5842 19.5968C23.5901 19.5952 23.5957 19.5932 23.6014 19.5913C23.6089 19.5888 23.6163 19.5865 23.6236 19.5837C23.6298 19.5813 23.6357 19.5786 23.6418 19.576C23.6483 19.5731 23.6549 19.5703 23.6612 19.5672C23.6673 19.5642 23.6732 19.561 23.6792 19.5577C23.6853 19.5544 23.6913 19.551 23.6972 19.5475C23.7029 19.544 23.7084 19.5403 23.7139 19.5366C23.7197 19.5327 23.7254 19.5287 23.7311 19.5246C23.7362 19.5207 23.7412 19.5168 23.7462 19.5127C23.7518 19.5082 23.7573 19.5035 23.7626 19.4987C23.7671 19.4946 23.7716 19.4905 23.776 19.4862C23.7813 19.481 23.7865 19.4756 23.7916 19.4701C23.7955 19.4658 23.7994 19.4614 23.8032 19.457C23.8081 19.4511 23.8128 19.4451 23.8174 19.4391C23.8209 19.4345 23.8243 19.43 23.8276 19.4253C23.8319 19.419 23.8361 19.4126 23.84 19.406C23.843 19.4012 23.8461 19.3963 23.8488 19.3913C23.8526 19.3847 23.8557 19.378 23.8591 19.3713C23.8617 19.3659 23.8644 19.3607 23.8668 19.3551C23.8697 19.3486 23.8721 19.3418 23.8746 19.3351C23.8768 19.3292 23.8791 19.3232 23.8811 19.3171C23.883 19.3107 23.8846 19.3041 23.8864 19.2975C23.8881 19.2909 23.89 19.2843 23.8914 19.2776C23.8927 19.2711 23.8936 19.2644 23.8946 19.2577C23.8957 19.2509 23.8969 19.2441 23.8976 19.2371C23.8978 19.2361 23.898 19.2351 23.898 19.2341L24.1204 16.8374H26.4135C27.7728 16.8374 28.3859 17.4987 29.035 18.1989C29.5705 18.7766 30.1684 19.4212 31.1847 19.5785C31.0556 20.8599 30.847 22.5049 30.7537 23.2252ZM31.2606 18.7436C30.6013 18.6174 30.1956 18.1822 29.7042 17.6521C29.0896 16.9892 28.3393 16.1802 26.901 16.0294L27.1306 13.555C29.4829 13.8816 31.2941 15.7895 31.2941 18.0876C31.2941 18.2437 31.2816 18.4706 31.2606 18.7436Z" fill="#1D1D1D" stroke="#1D1D1D" stroke-width="0.2"/>
<path id="Vector_2" d="M12.0094 22.1143C11.1124 22.1143 10.3826 22.7995 10.3826 23.6417C10.3826 24.484 11.1124 25.1692 12.0094 25.1692C12.9064 25.1692 13.6362 24.484 13.6362 23.6417C13.6362 22.7995 12.9064 22.1143 12.0094 22.1143ZM12.0094 24.3361C11.6016 24.3361 11.2699 24.0246 11.2699 23.6417C11.2699 23.2589 11.6016 22.9474 12.0094 22.9474C12.4172 22.9474 12.7489 23.2589 12.7489 23.6417C12.7489 24.0246 12.4171 24.3361 12.0094 24.3361Z" fill="#1D1D1D"/>
<path id="Vector_3" d="M25.8224 22.1143C24.9254 22.1143 24.1956 22.7995 24.1956 23.6417C24.1956 24.484 24.9254 25.1692 25.8224 25.1692C26.7194 25.1692 27.4492 24.484 27.4492 23.6417C27.4492 22.7995 26.7194 22.1143 25.8224 22.1143ZM25.8224 24.3361C25.4146 24.3361 25.0829 24.0246 25.0829 23.6417C25.0829 23.2589 25.4146 22.9474 25.8224 22.9474C26.2301 22.9474 26.5618 23.2589 26.5618 23.6417C26.5618 24.0246 26.2301 24.3361 25.8224 24.3361Z" fill="#1D1D1D"/>
<path id="Vector_4" d="M6.0932 12.6719H3.92415C3.67906 12.6719 3.48047 12.8584 3.48047 13.0885C3.48047 13.3185 3.67906 13.5051 3.92415 13.5051H6.0932C6.33829 13.5051 6.53688 13.3185 6.53688 13.0885C6.53688 12.8584 6.33829 12.6719 6.0932 12.6719Z" fill="#1D1D1D" stroke="#1D1D1D" stroke-width="0.2"/>
</g>
</g>
</svg>
