<svg width="38" height="38" viewBox="0 0 38 38" fill="none" xmlns="http://www.w3.org/2000/svg">
<g id="brandico:mastercard" clip-path="url(#clip0_501_940)">
<path id="Vector" d="M1.76818 7.41019C0.791958 7.41019 0 8.20173 0 9.17837V29.5061C0 30.4825 0.792072 31.2742 1.76818 31.2742H36.2319C37.2081 31.2742 38 30.4827 38 29.506V9.17833C38 8.20185 37.208 7.41016 36.2319 7.41016H1.76814L1.76818 7.41019ZM12.4604 10.2828C14.6295 10.2828 16.6216 11.0374 18.1854 12.2979C16.8697 13.4751 15.8884 15.0218 15.4043 16.7748H16.1631C16.61 15.3286 17.4217 14.041 18.4918 13.0199C19.5618 14.041 20.3735 15.3286 20.8204 16.7748H21.5911C21.1003 15.031 20.1176 13.4936 18.8029 12.3241C20.3696 11.0476 22.3696 10.2827 24.548 10.2827C29.5751 10.2827 33.6502 14.3583 33.6502 19.3861C33.6502 24.4139 29.5751 28.4895 24.548 28.4895C22.3334 28.4895 20.3026 27.699 18.7245 26.3841C20.1362 25.1559 21.1769 23.5095 21.6529 21.6364H20.9106C20.488 23.2085 19.6375 24.6067 18.4917 25.7001C17.346 24.6067 16.4966 23.2085 16.074 21.6364H15.3674C15.8461 23.4823 16.8733 25.1057 18.2637 26.3223C16.6885 27.621 14.6657 28.4016 12.4604 28.4016C7.43337 28.4016 3.35825 24.3457 3.35825 19.3422C3.35825 14.3387 7.43337 10.2828 12.4604 10.2828ZM23.8652 16.6822C22.7715 16.6822 21.7075 17.6384 21.7075 19.4336C21.7075 20.6241 22.2822 21.4096 23.4128 21.4096C23.7324 21.4097 24.2416 21.279 24.2416 21.279L24.4103 20.2388C24.4103 20.2388 23.9455 20.4739 23.6265 20.4739C22.9545 20.4739 22.6848 19.957 22.6848 19.4016C22.6848 18.2748 23.263 17.6547 23.9068 17.6547C24.3895 17.6547 24.7772 17.9279 24.7772 17.9279L24.9316 16.9161C24.9316 16.9161 24.3577 16.6822 23.8652 16.6822ZM33.06 16.7701L32.1088 16.7724L31.9046 18.0241C31.9046 18.0241 31.547 17.5384 30.9878 17.5384C30.1184 17.5384 29.3942 18.5712 29.3942 19.759C29.3942 20.5257 29.7796 21.2778 30.5698 21.2778C31.1382 21.2778 31.4533 20.8872 31.4533 20.8872L31.4118 21.2208H32.3356L33.06 16.7701ZM5.81636 16.7831L5.05875 21.2446H5.97193L6.54907 17.8804L6.63457 21.2446H7.28768L8.50607 17.8804L7.96575 21.2446H8.93593L9.68407 16.7831H8.18307L7.2485 19.5203L7.19982 16.7832H5.81639L5.81636 16.7831ZM15.3568 17.0729C15.3361 17.0936 14.8046 20.1587 14.8046 20.5321C14.8046 21.0848 15.1144 21.3317 15.5503 21.3277C15.8627 21.325 16.1046 21.2466 16.2165 21.2137C16.2282 21.2105 16.2509 21.2042 16.2509 21.2042L16.3685 20.4062C16.3046 20.4062 16.2104 20.4335 16.1274 20.4335C15.802 20.4335 15.7659 20.2604 15.7866 20.1319L16.0491 18.5038H16.5443L16.6642 17.6215H16.1975L16.2925 17.0729H15.3568ZM26.3946 17.5218C25.7572 17.5218 25.2688 17.7319 25.2688 17.7319L25.1334 18.5513C25.1334 18.5513 25.5368 18.3839 26.1464 18.3839C26.4925 18.3839 26.746 18.4235 26.746 18.7116C26.746 18.8867 26.7152 18.9515 26.7152 18.9515C26.7152 18.9515 26.4415 18.9278 26.315 18.9278C25.5112 18.9278 24.6668 19.28 24.6668 20.3397C24.6668 21.1746 25.2211 21.3657 25.5645 21.3657C26.2203 21.3657 26.5031 20.93 26.5181 20.9287L26.4872 21.2921H27.3054L27.6711 18.6701C27.6713 17.5575 26.7237 17.5217 26.3946 17.5217V17.5218ZM11.0461 17.5265C10.4064 17.5265 9.91561 17.7367 9.91561 17.7367L9.78025 18.5561C9.78025 18.5561 10.185 18.3886 10.7968 18.3886C11.1441 18.3886 11.3988 18.4284 11.3988 18.7164C11.3988 18.8913 11.3679 18.9563 11.3679 18.9563C11.3679 18.9563 11.0935 18.9325 10.9666 18.9325C10.1597 18.9325 9.3124 19.2842 9.3124 20.3433C9.3124 21.1777 9.86788 21.3693 10.2125 21.3693C10.8707 21.3693 11.1545 20.9336 11.1696 20.9323L11.1388 21.2956H11.9605L12.3274 18.6748C12.3274 17.5629 11.3764 17.5265 11.0461 17.5265V17.5265ZM13.9484 17.5265C13.2614 17.5265 12.5638 17.8038 12.5638 18.7508C12.5638 19.8239 13.7263 19.7155 13.7263 20.1675C13.7263 20.4692 13.4019 20.4941 13.1516 20.4941C12.7184 20.4941 12.3288 20.3444 12.3274 20.3516L12.2028 21.1709C12.2252 21.1779 12.4664 21.2861 13.2454 21.2861C13.4545 21.2861 14.6502 21.3392 14.6502 20.0939C14.6502 18.9296 13.5434 19.1604 13.5434 18.6926C13.5434 18.4598 13.7231 18.3863 14.0529 18.3863C14.1838 18.3863 14.6882 18.4278 14.6882 18.4278L14.8046 17.6001C14.8046 17.6002 14.4791 17.5265 13.9484 17.5265ZM18.2424 17.5265C17.2878 17.5267 16.5811 18.5532 16.5811 19.7127C16.5811 21.051 17.4665 21.3693 18.221 21.3693C18.9174 21.3693 19.2244 21.2137 19.2244 21.2137L19.3907 20.3005C19.3907 20.3005 18.8609 20.5333 18.3825 20.5333C17.3631 20.5333 17.5418 19.7744 17.5418 19.7744H19.4714C19.4714 19.7744 19.5961 19.1612 19.5961 18.9111C19.5961 18.2872 19.2847 17.5265 18.2424 17.5265ZM21.6992 17.5657C21.2692 17.5657 20.9499 18.144 20.9499 18.144L21.0354 17.6132H20.1424L19.5427 21.2778H20.5295C20.809 19.7129 20.86 18.4422 21.527 18.6748C21.6437 18.0691 21.757 17.8351 21.8844 17.5788C21.8844 17.5788 21.8246 17.5657 21.6992 17.5657ZM29.6946 17.5657C29.2646 17.5657 28.9453 18.144 28.9453 18.144L29.0308 17.6132H28.1378L27.5381 21.2778H28.5238C28.8034 19.7129 28.8557 18.4422 29.5224 18.6748C29.6394 18.0691 29.7526 17.8351 29.8799 17.5788C29.8799 17.5788 29.82 17.5657 29.6946 17.5657ZM18.2376 18.353C18.7798 18.353 18.6806 18.965 18.6806 19.0144H17.613C17.613 18.9513 17.714 18.353 18.2376 18.353ZM31.1375 18.4243C31.4825 18.4242 31.66 18.6572 31.66 19.2056C31.66 19.7032 31.409 20.3682 30.8893 20.3682C30.5443 20.3682 30.3822 20.0833 30.3822 19.6367C30.3822 18.9064 30.7163 18.4243 31.1375 18.4243ZM26.3958 19.6711C26.5365 19.6713 26.5656 19.685 26.5893 19.6913C26.5859 19.6908 26.5853 19.6914 26.5988 19.6937C26.6166 19.8569 26.5002 20.6223 25.9374 20.6223C25.6472 20.6223 25.5728 20.3916 25.5728 20.2554C25.5728 19.9898 25.7111 19.6711 26.3958 19.6711ZM11.0473 19.6747C11.2072 19.6749 11.2246 19.6927 11.2516 19.6973C11.2694 19.8604 11.1525 20.6247 10.5878 20.6247C10.2964 20.6247 10.2208 20.395 10.2208 20.2589C10.2208 19.9936 10.3599 19.6747 11.0473 19.6747Z" fill="#7B7C7E"/>
</g>
<defs>
<clipPath id="clip0_501_940">
<rect width="38" height="38" fill="white"/>
</clipPath>
</defs>
</svg>
