<svg width="37" height="33" viewBox="0 0 37 33" fill="none" xmlns="http://www.w3.org/2000/svg">
<g id="credit-card">
<g id="credit-card_2">
<path id="Vector" d="M33.8715 7.09566C33.4514 6.66179 32.8632 6.39678 32.2149 6.34948L9.38351 4.68382C8.73521 4.63652 8.1049 4.81262 7.60826 5.1796C7.11364 5.54514 6.81077 6.05652 6.75492 6.62013L6.29558 10.3854H4.46144C3.11875 10.3854 2.02637 11.3399 2.02637 12.513V25.0003C2.02637 26.1734 3.11875 27.1278 4.46144 27.1278H27.3724C28.7151 27.1278 29.8075 26.1734 29.8075 25.0003V22.9746L30.6205 23.0339C30.6891 23.0389 30.7573 23.0414 30.8249 23.0414C32.0767 23.0414 33.1438 22.1999 33.2498 21.0907L34.4391 8.64679C34.4931 8.08042 34.2916 7.52959 33.8715 7.09566ZM4.46144 11.4919H27.3724C28.0168 11.4919 28.5411 11.95 28.5411 12.513V13.6508H3.29282V12.513C3.29282 11.95 3.81707 11.4919 4.46144 11.4919ZM3.29282 14.7574H28.5411V17.0528H3.29282V14.7574ZM27.3724 26.0213H4.46144C3.81707 26.0213 3.29282 25.5633 3.29282 25.0003V18.1593H28.5411V25.0003C28.5411 25.5633 28.0168 26.0213 27.3724 26.0213ZM33.177 8.55467L31.9877 20.9986C31.9341 21.5597 31.3679 21.9782 30.7259 21.9312L29.8075 21.8642V12.513C29.8075 11.3399 28.7151 10.3854 27.3724 10.3854H7.56925L8.01498 6.73167C8.01549 6.72746 8.01593 6.72332 8.01631 6.71906C8.06994 6.15799 8.63579 5.7395 9.27814 5.78653L32.1096 7.45218C32.4207 7.47487 32.7031 7.60206 32.9046 7.81031C33.1062 8.01856 33.2029 8.28285 33.177 8.55467Z" fill="#1D1D1D"/>
<path id="Vector_2" d="M25.8911 19.8042H19.7968C19.4471 19.8042 19.1636 20.0519 19.1636 20.3575V23.8314C19.1636 24.1369 19.4471 24.3846 19.7968 24.3846H25.8911C26.2409 24.3846 26.5244 24.1369 26.5244 23.8314V20.3575C26.5244 20.0519 26.2409 19.8042 25.8911 19.8042ZM25.2579 23.2781H20.43V20.9107H25.2579V23.2781Z" fill="#1D1D1D"/>
</g>
</g>
</svg>
