<svg width="31" height="33" viewBox="0 0 31 33" fill="none" xmlns="http://www.w3.org/2000/svg">
<g id="guarantee">
<g id="guarantee_2">
<path id="Vector" d="M28.2506 17.7052C28.1036 17.133 27.9652 16.5921 27.9652 16.0986C27.9652 15.605 28.1036 15.0642 28.2506 14.492C28.4844 13.5811 28.7258 12.6389 28.437 11.7231C28.1373 10.7705 27.3905 10.1479 26.6683 9.54676C26.2354 9.18598 25.8265 8.84549 25.5612 8.47057C25.2913 8.08828 25.1003 7.57815 24.899 7.0379C24.5668 6.1504 24.2237 5.23216 23.4551 4.65565C22.6991 4.08774 21.7556 4.03304 20.8446 3.9808C20.2762 3.94823 19.7387 3.91688 19.2887 3.7663C18.8678 3.62555 18.432 3.33361 17.9711 3.02446C17.2295 2.52662 16.3883 1.9624 15.4156 1.9624C14.4429 1.9624 13.6017 2.52662 12.86 3.02507C12.3991 3.33423 11.9645 3.62678 11.5431 3.76692C11.0925 3.9175 10.5549 3.94884 9.98652 3.98142C9.07501 4.03427 8.13261 4.08836 7.37607 4.65626C6.60751 5.23277 6.26441 6.1504 5.93217 7.0379C5.72973 7.57815 5.53874 8.0889 5.26883 8.47119C5.0035 8.84733 4.59463 9.18783 4.16175 9.54922C3.44008 10.1509 2.6944 10.7723 2.39476 11.7237C2.10598 12.6401 2.34729 13.5817 2.5806 14.4932C2.72757 15.0654 2.86595 15.6056 2.86595 16.0992C2.86595 16.5927 2.72757 17.1336 2.5806 17.7058C2.34729 18.6167 2.10598 19.5589 2.39476 20.4759C2.6944 21.4273 3.44065 22.0499 4.16232 22.651C4.5952 23.0112 5.00407 23.3523 5.26883 23.7272C5.53931 24.1095 5.73031 24.6196 5.93217 25.1605C6.26441 26.048 6.60808 26.9662 7.37721 27.5439C8.13261 28.1106 9.07558 28.1647 9.98652 28.217C10.5549 28.2495 11.0925 28.2809 11.5425 28.4315C11.9634 28.5722 12.3985 28.8641 12.8589 29.1727C13.6011 29.6699 14.4423 30.2347 15.4156 30.2347C16.3889 30.2347 17.2306 29.6699 17.9734 29.1721C18.4338 28.8635 18.8684 28.5716 19.2898 28.4308C19.7398 28.2803 20.2774 28.2489 20.8458 28.2163C21.7573 28.1641 22.6997 28.11 23.4551 27.5433C24.2254 26.9656 24.5685 26.0461 24.9007 25.158C25.1026 24.6184 25.293 24.1082 25.5618 23.7272C25.8271 23.3523 26.236 23.0112 26.6688 22.651C27.3911 22.0493 28.1373 21.4273 28.4376 20.4753C28.7263 19.5582 28.4844 18.6167 28.2506 17.7052ZM27.3538 20.0813C27.1646 20.6824 26.583 21.1667 25.9677 21.6793C25.4959 22.0726 25.0076 22.4795 24.6507 22.9835C24.2888 23.4973 24.06 24.1082 23.8387 24.7001C23.5568 25.4549 23.2903 26.1672 22.8003 26.5348C22.3119 26.9011 21.5702 26.9435 20.7845 26.9883C20.1709 27.0234 19.5356 27.0596 18.9489 27.2563C18.3879 27.445 17.8687 27.7923 17.3672 28.1291C16.6953 28.5802 16.0611 29.0055 15.4155 29.0055C14.7699 29.0055 14.1363 28.5802 13.4644 28.1291C12.9635 27.7929 12.4448 27.445 11.8832 27.2563C11.2965 27.0602 10.6612 27.0234 10.0476 26.9883C9.26193 26.9435 8.51968 26.9004 8.0319 26.5348C7.5424 26.1672 7.27535 25.4549 6.99343 24.7007C6.77213 24.1089 6.54282 23.4973 6.18027 22.9835C5.82402 22.4795 5.33566 22.0726 4.86332 21.6787C4.24859 21.1661 3.6676 20.6824 3.47832 20.0813C3.30162 19.5214 3.48747 18.7973 3.68361 18.0315C3.84373 17.4052 4.00956 16.7587 4.00956 16.098C4.00956 15.4372 3.84373 14.7913 3.68361 14.165C3.4869 13.3992 3.30162 12.6758 3.47832 12.1159C3.6676 11.5148 4.24802 11.0311 4.86275 10.5185C5.33509 10.1245 5.82402 9.71701 6.1797 9.21241C6.54339 8.69859 6.77213 8.08644 6.994 7.49456C7.27535 6.74043 7.54183 6.0287 8.03075 5.66239C8.51911 5.29546 9.26193 5.25306 10.0482 5.20819C10.6612 5.17254 11.2965 5.13628 11.8827 4.9396C12.4448 4.75153 12.964 4.40304 13.4661 4.06623C14.1369 3.61695 14.7705 3.19163 15.4155 3.19163C16.0605 3.19163 16.6947 3.61695 17.3661 4.06746C17.8681 4.40489 18.3868 4.75276 18.9489 4.94083C19.5351 5.13689 20.1698 5.17316 20.7834 5.2088C21.5697 5.25367 22.3119 5.29731 22.8003 5.66362C23.2898 6.03116 23.5562 6.74289 23.8376 7.49579C24.0595 8.08828 24.2876 8.69982 24.6513 9.21364C25.0076 9.71763 25.4959 10.1245 25.9677 10.5179C26.583 11.0311 27.1646 11.5154 27.3538 12.1177C27.5305 12.6764 27.3441 13.3998 27.148 14.1656C26.9873 14.7919 26.8215 15.4385 26.8215 16.0992C26.8215 16.7599 26.9867 17.4065 27.148 18.0322C27.3448 18.798 27.5305 19.5214 27.3538 20.0813Z" fill="#1D1D1D"/>
<path id="Vector_2" d="M15.416 6.87891C10.6863 6.87891 6.83838 11.0147 6.83838 16.0982C6.83838 21.1816 10.6863 25.3174 15.416 25.3174C20.1457 25.3174 23.9936 21.1816 23.9936 16.0982C23.9936 11.0147 20.1457 6.87891 15.416 6.87891ZM15.416 24.0882C11.317 24.0882 7.98206 20.5037 7.98206 16.0982C7.98206 11.6926 11.317 8.10814 15.416 8.10814C17.5301 8.10814 19.436 9.06633 20.7913 10.5943L15.3417 18.8369L12.3892 15.6636C12.1657 15.4233 11.8042 15.4233 11.5807 15.6636C11.3571 15.9039 11.3571 16.2924 11.5807 16.5327L15.0117 20.2204C15.1192 20.3365 15.265 20.4005 15.416 20.4005C15.4314 20.4005 15.448 20.3998 15.464 20.398C15.6316 20.3833 15.7848 20.2892 15.882 20.1417L21.5416 11.5813C22.365 12.8671 22.8499 14.4221 22.8499 16.0982C22.8499 20.5037 19.515 24.0882 15.416 24.0882Z" fill="#1D1D1D"/>
</g>
</g>
</svg>
