<svg width="56" height="56" viewBox="0 0 56 56" fill="none" xmlns="http://www.w3.org/2000/svg">
<path fill-rule="evenodd" clip-rule="evenodd" d="M30.1187 3.68899C29.9319 3.28424 29.6331 2.94146 29.2577 2.7012C28.8822 2.46094 28.4458 2.33325 28 2.33325C27.5542 2.33325 27.1178 2.46094 26.7423 2.7012C26.3669 2.94146 26.0681 3.28424 25.8813 3.68899L19.1847 18.2023L3.31566 20.0853C2.87292 20.1376 2.45441 20.3156 2.10968 20.5983C1.76495 20.881 1.50842 21.2566 1.37046 21.6805C1.2325 22.1045 1.21889 22.559 1.33122 22.9905C1.44356 23.4219 1.67714 23.8122 2.00433 24.115L13.741 34.965L10.626 50.645C10.5395 51.0821 10.5799 51.5348 10.7425 51.9496C10.9052 52.3645 11.1832 52.7241 11.5437 52.9859C11.9042 53.2478 12.3321 53.401 12.7769 53.4273C13.2217 53.4537 13.6648 53.3521 14.0537 53.1347L28 45.3273L41.9463 53.1347C42.3355 53.353 42.7791 53.4552 43.2246 53.4292C43.67 53.4031 44.0987 53.2498 44.4597 52.9875C44.8207 52.7253 45.099 52.3649 45.2614 51.9493C45.4239 51.5337 45.4638 51.0802 45.3763 50.6427L42.2613 34.9673L53.9957 24.115C54.3229 23.8122 54.5564 23.4219 54.6688 22.9905C54.7811 22.559 54.7675 22.1045 54.6295 21.6805C54.4916 21.2566 54.235 20.881 53.8903 20.5983C53.5456 20.3156 53.1271 20.1376 52.6843 20.0853L36.813 18.2L30.1187 3.68899Z" fill="#7B7C7E"/>
</svg>
