<svg width="25" height="24" viewBox="0 0 25 24" fill="none" xmlns="http://www.w3.org/2000/svg">
<path d="M16.3666 2H8.29661C6.71976 2.00185 5.20805 2.62914 4.09314 3.74424C2.97823 4.85933 2.3512 6.37115 2.34961 7.948L2.34961 16.018C2.35146 17.5948 2.97875 19.1066 4.09385 20.2215C5.20894 21.3364 6.72076 21.9634 8.29761 21.965H16.3676C17.9445 21.9631 19.4562 21.3359 20.5711 20.2208C21.686 19.1057 22.313 17.5938 22.3146 16.017V7.947C22.3128 6.37015 21.6855 4.85844 20.5704 3.74353C19.4553 2.62862 17.9435 2.00159 16.3666 2V2ZM20.3066 16.017C20.3066 16.5344 20.2047 17.0468 20.0067 17.5248C19.8087 18.0028 19.5185 18.4371 19.1526 18.803C18.7867 19.1689 18.3524 19.4591 17.8744 19.6571C17.3964 19.8551 16.884 19.957 16.3666 19.957H8.29661C7.25183 19.9567 6.24993 19.5415 5.51126 18.8026C4.77258 18.0638 4.35761 17.0618 4.35761 16.017V7.947C4.35787 6.90222 4.7731 5.90032 5.51196 5.16165C6.25083 4.42297 7.25283 4.008 8.29761 4.008H16.3676C17.4124 4.00827 18.4143 4.42349 19.153 5.16235C19.8916 5.90122 20.3066 6.90322 20.3066 7.948V16.018V16.017Z" fill="white"/>
<path d="M12.3316 6.81897C10.963 6.82109 9.65114 7.36576 8.68351 8.33358C7.71587 9.3014 7.17146 10.6134 7.16961 11.982C7.1712 13.3509 7.71563 14.6633 8.68351 15.6314C9.65139 16.5994 10.9637 17.1441 12.3326 17.146C13.7017 17.1444 15.0143 16.5998 15.9824 15.6317C16.9504 14.6636 17.495 13.3511 17.4966 11.982C17.4945 10.6131 16.9495 9.30085 15.9813 8.33316C15.013 7.36547 13.7005 6.82129 12.3316 6.81997V6.81897ZM12.3316 15.138C11.4949 15.138 10.6924 14.8056 10.1007 14.2139C9.50901 13.6222 9.17661 12.8197 9.17661 11.983C9.17661 11.1462 9.50901 10.3437 10.1007 9.75205C10.6924 9.16037 11.4949 8.82797 12.3316 8.82797C13.1684 8.82797 13.9709 9.16037 14.5625 9.75205C15.1542 10.3437 15.4866 11.1462 15.4866 11.983C15.4866 12.8197 15.1542 13.6222 14.5625 14.2139C13.9709 14.8056 13.1684 15.138 12.3316 15.138Z" fill="white"/>
<path d="M17.5056 8.09497C18.1888 8.09497 18.7426 7.54115 18.7426 6.85797C18.7426 6.1748 18.1888 5.62097 17.5056 5.62097C16.8224 5.62097 16.2686 6.1748 16.2686 6.85797C16.2686 7.54115 16.8224 8.09497 17.5056 8.09497Z" fill="white"/>
</svg>
