<svg width="25" height="24" viewBox="0 0 25 24" fill="none" xmlns="http://www.w3.org/2000/svg">
<path d="M22.3086 13.719V21.098H18.0306V14.213C18.0306 12.483 17.4116 11.303 15.8636 11.303C14.6816 11.303 13.9776 12.099 13.6686 12.868C13.5556 13.143 13.5266 13.526 13.5266 13.911V21.098H9.24661C9.24661 21.098 9.30461 9.438 9.24661 8.229H13.5266V10.053L13.4986 10.095H13.5266V10.053C14.0946 9.178 15.1096 7.927 17.3826 7.927C20.1976 7.927 22.3086 9.767 22.3086 13.719ZM4.77061 2.026C3.30761 2.026 2.34961 2.986 2.34961 4.249C2.34961 5.484 3.27961 6.473 4.71461 6.473H4.74261C6.23561 6.473 7.16261 5.484 7.16261 4.249C7.13661 2.986 6.23661 2.026 4.77161 2.026H4.77061ZM2.60361 21.098H6.88161V8.229H2.60361V21.098Z" fill="white"/>
</svg>
