<svg width="56" height="56" viewBox="0 0 56 56" fill="none" xmlns="http://www.w3.org/2000/svg">
<g id="mdi:clover">
<path id="Vector" d="M28 26.0867C35.7 19.0867 39.6667 15.4934 39.6667 10.9434C39.6667 7.44341 36.75 4.66675 33.25 4.66675C31.2434 4.66675 29.33 5.50675 28 7.00008C26.67 5.50675 24.7567 4.66675 22.61 4.66675C19.11 4.66675 16.3334 7.58341 16.3334 11.0834C16.3334 15.4934 20.3 19.0867 28 26.0867ZM26.0867 28.0001C19.0867 20.3001 15.4934 16.3334 10.9434 16.3334C7.44335 16.3334 4.66669 19.2501 4.66669 22.7501C4.66669 24.7567 5.50669 26.6701 7.00002 28.0001C5.50669 29.3301 4.66669 31.2434 4.66669 33.3901C4.66669 36.8901 7.58335 39.6667 11.0834 39.6667C15.4934 39.6667 19.0867 35.7001 26.0867 28.0001ZM29.9367 28.0001C36.9134 35.7001 40.5067 39.6667 45.0567 39.6667C48.5567 39.6667 51.3334 36.7501 51.3334 33.2501C51.3334 31.2434 50.4934 29.3301 49 28.0001C50.4934 26.6701 51.3334 24.7567 51.3334 22.6101C51.3334 19.1101 48.4167 16.3334 44.9167 16.3334C40.5067 16.3334 36.9134 20.3001 29.9367 28.0001ZM28 29.9134C20.3 36.9134 16.3334 40.5067 16.3334 45.0567C16.3334 48.5567 19.25 51.3334 22.75 51.3334C24.7567 51.3334 26.67 50.4934 28 49.0001C29.33 50.4934 31.2434 51.3334 33.39 51.3334C36.89 51.3334 39.6667 48.4167 39.6667 44.9167C39.6667 40.5067 35.7 36.9134 28 29.9134Z" fill="#7B7C7E"/>
</g>
</svg>
