<svg width="36" height="37" viewBox="0 0 36 37" fill="none" xmlns="http://www.w3.org/2000/svg">
<path d="M13.5 8.06129C13.1022 8.06129 12.7206 8.21933 12.4393 8.50063C12.158 8.78194 12 9.16347 12 9.56129C12 9.95912 12.158 10.3406 12.4393 10.622C12.7206 10.9033 13.1022 11.0613 13.5 11.0613C13.8978 11.0613 14.2794 10.9033 14.5607 10.622C14.842 10.3406 15 9.95912 15 9.56129C15 9.16347 14.842 8.78194 14.5607 8.50063C14.2794 8.21933 13.8978 8.06129 13.5 8.06129ZM9.255 8.06129C9.5649 7.18299 10.1396 6.42244 10.8999 5.88448C11.6602 5.34651 12.5686 5.05762 13.5 5.05762C14.4314 5.05762 15.3398 5.34651 16.1001 5.88448C16.8604 6.42244 17.4351 7.18299 17.745 8.06129H28.5C28.8978 8.06129 29.2794 8.21933 29.5607 8.50063C29.842 8.78194 30 9.16347 30 9.56129C30 9.95912 29.842 10.3406 29.5607 10.622C29.2794 10.9033 28.8978 11.0613 28.5 11.0613H17.745C17.4351 11.9396 16.8604 12.7001 16.1001 13.2381C15.3398 13.7761 14.4314 14.065 13.5 14.065C12.5686 14.065 11.6602 13.7761 10.8999 13.2381C10.1396 12.7001 9.5649 11.9396 9.255 11.0613H7.5C7.10218 11.0613 6.72064 10.9033 6.43934 10.622C6.15804 10.3406 6 9.95912 6 9.56129C6 9.16347 6.15804 8.78194 6.43934 8.50063C6.72064 8.21933 7.10218 8.06129 7.5 8.06129H9.255ZM22.5 17.0613C22.1022 17.0613 21.7206 17.2193 21.4393 17.5006C21.158 17.7819 21 18.1635 21 18.5613C21 18.9591 21.158 19.3406 21.4393 19.622C21.7206 19.9033 22.1022 20.0613 22.5 20.0613C22.8978 20.0613 23.2794 19.9033 23.5607 19.622C23.842 19.3406 24 18.9591 24 18.5613C24 18.1635 23.842 17.7819 23.5607 17.5006C23.2794 17.2193 22.8978 17.0613 22.5 17.0613ZM18.255 17.0613C18.5649 16.183 19.1396 15.4224 19.8999 14.8845C20.6602 14.3465 21.5686 14.0576 22.5 14.0576C23.4314 14.0576 24.3398 14.3465 25.1001 14.8845C25.8604 15.4224 26.4351 16.183 26.745 17.0613H28.5C28.8978 17.0613 29.2794 17.2193 29.5607 17.5006C29.842 17.7819 30 18.1635 30 18.5613C30 18.9591 29.842 19.3406 29.5607 19.622C29.2794 19.9033 28.8978 20.0613 28.5 20.0613H26.745C26.4351 20.9396 25.8604 21.7001 25.1001 22.2381C24.3398 22.7761 23.4314 23.065 22.5 23.065C21.5686 23.065 20.6602 22.7761 19.8999 22.2381C19.1396 21.7001 18.5649 20.9396 18.255 20.0613H7.5C7.10218 20.0613 6.72064 19.9033 6.43934 19.622C6.15804 19.3406 6 18.9591 6 18.5613C6 18.1635 6.15804 17.7819 6.43934 17.5006C6.72064 17.2193 7.10218 17.0613 7.5 17.0613H18.255ZM13.5 26.0613C13.1022 26.0613 12.7206 26.2193 12.4393 26.5006C12.158 26.7819 12 27.1635 12 27.5613C12 27.9591 12.158 28.3407 12.4393 28.622C12.7206 28.9033 13.1022 29.0613 13.5 29.0613C13.8978 29.0613 14.2794 28.9033 14.5607 28.622C14.842 28.3407 15 27.9591 15 27.5613C15 27.1635 14.842 26.7819 14.5607 26.5006C14.2794 26.2193 13.8978 26.0613 13.5 26.0613ZM9.255 26.0613C9.5649 25.183 10.1396 24.4224 10.8999 23.8845C11.6602 23.3465 12.5686 23.0576 13.5 23.0576C14.4314 23.0576 15.3398 23.3465 16.1001 23.8845C16.8604 24.4224 17.4351 25.183 17.745 26.0613H28.5C28.8978 26.0613 29.2794 26.2193 29.5607 26.5006C29.842 26.7819 30 27.1635 30 27.5613C30 27.9591 29.842 28.3407 29.5607 28.622C29.2794 28.9033 28.8978 29.0613 28.5 29.0613H17.745C17.4351 29.9396 16.8604 30.7001 16.1001 31.2381C15.3398 31.7761 14.4314 32.065 13.5 32.065C12.5686 32.065 11.6602 31.7761 10.8999 31.2381C10.1396 30.7001 9.5649 29.9396 9.255 29.0613H7.5C7.10218 29.0613 6.72064 28.9033 6.43934 28.622C6.15804 28.3407 6 27.9591 6 27.5613C6 27.1635 6.15804 26.7819 6.43934 26.5006C6.72064 26.2193 7.10218 26.0613 7.5 26.0613H9.255Z" fill="#1A3624"/>
</svg>
