<svg width="56" height="56" viewBox="0 0 56 56" fill="none" xmlns="http://www.w3.org/2000/svg">
<path d="M52.5 20.5625C52.5 35.875 29.7959 48.2694 28.8291 48.7812C28.5742 48.9183 28.2894 48.9901 28 48.9901C27.7106 48.9901 27.4258 48.9183 27.1709 48.7812C26.2041 48.2694 3.5 35.875 3.5 20.5625C3.50405 16.9667 4.93426 13.5194 7.47684 10.9768C10.0194 8.43426 13.4667 7.00405 17.0625 7C21.5797 7 25.5347 8.9425 28 12.2259C30.4653 8.9425 34.4203 7 38.9375 7C42.5333 7.00405 45.9806 8.43426 48.5232 10.9768C51.0657 13.5194 52.4959 16.9667 52.5 20.5625Z" fill="#7B7C7E"/>
</svg>
