<svg width="38" height="38" viewBox="0 0 38 38" fill="none" xmlns="http://www.w3.org/2000/svg">
<g id="ri:visa-fill">
<path id="Vector" d="M1.5835 6.3335H36.4168V9.50016H1.5835V6.3335ZM1.5835 28.5002H36.4168V31.6668H1.5835V28.5002ZM31.0683 23.614L30.7928 22.2365H27.7069L27.2161 23.6029L24.7429 23.6092C26.3342 19.7982 27.5137 16.9751 28.2832 15.1384C28.4843 14.6602 28.8422 14.4164 29.3678 14.4196C29.77 14.4227 30.4271 14.4227 31.3391 14.4196L33.2502 23.6108L31.0683 23.6156V23.614ZM28.402 20.3492H30.3907L29.6465 16.8975L28.402 20.3492ZM12.4642 14.418L14.95 14.4212L11.1072 23.614L8.58975 23.6124C7.7395 20.3349 7.11408 17.9029 6.71508 16.3212C6.59316 15.8351 6.35091 15.4962 5.88225 15.3363C5.46583 15.1938 4.77233 14.9722 3.80016 14.6729V14.4196H7.77275C8.45991 14.4196 8.8605 14.7521 8.99033 15.4329L9.972 20.6405L12.4642 14.418ZM18.3652 14.4212L16.4019 23.6124L14.0348 23.6092L15.9982 14.418L18.3652 14.4212ZM23.1659 14.2502C23.8721 14.2502 24.7651 14.4687 25.2781 14.6729L24.8632 16.5792C24.3993 16.3924 23.6362 16.1407 22.9949 16.1517C22.0607 16.166 21.4844 16.5571 21.4844 16.9323C21.4844 17.5403 22.4851 17.8475 23.5174 18.5141C24.6938 19.2741 24.8474 19.9549 24.8347 20.6959C24.8173 22.2333 23.5174 23.7502 20.7735 23.7502C19.5211 23.7312 19.0698 23.6267 18.0502 23.2657L18.4808 21.277C19.5195 21.7108 19.9612 21.8486 20.8479 21.8486C21.6633 21.8486 22.3616 21.5208 22.3679 20.9492C22.3711 20.5423 22.1225 20.3412 21.2089 19.8377C20.2953 19.3358 19.0144 18.6407 19.0318 17.2411C19.0524 15.4519 20.7545 14.2502 23.1659 14.2502Z" fill="#7B7C7E"/>
</g>
</svg>
