<svg width="20" height="20" viewBox="0 0 20 20" fill="none" xmlns="http://www.w3.org/2000/svg">
<rect width="20" height="20" fill="#E5E5E5"/>
<g id="Wireframe-mainpage" clip-path="url(#clip0_0_1)">
<rect width="1440" height="4863" transform="translate(-191 -1441)" fill="white"/>
<g id="Frame 160">
<g id="Group 37">
<g id="Group 34">
<path id="Rectangle 7" d="M-7 -0.999995C-7 -8.73198 -0.731986 -15 7 -15H324C331.732 -15 338 -8.73199 338 -1V400C338 407.732 331.732 414 324 414H7C-0.731984 414 -7 407.732 -7 400V-0.999995Z" stroke="#D1D1D1" stroke-width="2"/>
<path id="Rectangle 4" d="M-8 -0.999994C-8 -9.28427 -1.28427 -16 7 -16H324C332.284 -16 339 -9.28427 339 -0.999999V203C339 211.284 332.284 218 324 218H7C-1.28427 218 -8 211.284 -8 203V-0.999994Z" fill="#DEDEDE"/>
<g id="Component 9">
<path d="M-8 -4H92C99.732 -4 106 2.26801 106 10C106 17.732 99.732 24 92 24H-8V-4Z" fill="white"/>
<g id="ic:round-star">
<path id="Vector" d="M9.99994 14.3916L13.4583 16.4833C14.0916 16.8666 14.8666 16.3 14.6999 15.5833L13.7833 11.65L16.8416 8.99997C17.3999 8.51663 17.0999 7.59997 16.3666 7.54163L12.3416 7.19997L10.7666 3.4833C10.4833 2.8083 9.51661 2.8083 9.23327 3.4833L7.65827 7.19163L3.63327 7.5333C2.89994 7.59163 2.59994 8.5083 3.15827 8.99163L6.21661 11.6416L5.29994 15.575C5.13327 16.2916 5.90827 16.8583 6.5416 16.475L9.99994 14.3916Z" fill="#929292"/>
</g>
</g>
</g>
</g>
</g>
</g>
<defs>
<clipPath id="clip0_0_1">
<rect width="1440" height="4863" fill="white" transform="translate(-191 -1441)"/>
</clipPath>
</defs>
</svg>
