<svg width="25" height="24" viewBox="0 0 25 24" fill="none" xmlns="http://www.w3.org/2000/svg">
<path d="M22.3496 5.90698C21.6 6.23436 20.8061 6.44902 19.9936 6.54398C20.8464 6.04321 21.4877 5.24909 21.7976 4.30998C20.9896 4.78031 20.1083 5.11158 19.1906 5.28998C18.8042 4.88519 18.3393 4.56337 17.8244 4.34416C17.3094 4.12495 16.7552 4.01295 16.1956 4.01498C13.9296 4.01498 12.0926 5.82498 12.0926 8.05498C12.0926 8.37098 12.1286 8.67998 12.1986 8.97498C10.5732 8.89768 8.98173 8.48239 7.52578 7.75562C6.06983 7.02885 4.78137 6.00656 3.74261 4.75398C3.37844 5.36838 3.18702 6.06976 3.18861 6.78398C3.18931 7.45195 3.35644 8.10921 3.6749 8.69637C3.99336 9.28354 4.45311 9.78209 5.01261 10.147C4.36209 10.126 3.72563 9.95231 3.15461 9.63998V9.68998C3.15461 11.648 4.56961 13.281 6.44461 13.653C6.09222 13.7465 5.72919 13.7939 5.36461 13.794C5.09961 13.794 4.84261 13.769 4.59161 13.719C4.85969 14.5269 5.37272 15.2313 6.05943 15.7343C6.74614 16.2373 7.57245 16.514 8.42361 16.526C6.96368 17.6505 5.17143 18.258 3.32861 18.253C2.99661 18.253 2.67061 18.233 2.34961 18.197C4.23086 19.3877 6.4122 20.0183 8.63861 20.015C16.1856 20.015 20.3116 13.858 20.3116 8.51898L20.2976 7.99598C21.1025 7.42965 21.7978 6.72183 22.3496 5.90698Z" fill="white"/>
</svg>
