<svg width="28" height="33" viewBox="0 0 28 33" fill="none" xmlns="http://www.w3.org/2000/svg">
<g id="United-states">
<g id="United-states_2">
<path id="Vector" d="M24.5125 7.35107H3.16774C2.57206 7.35107 2.0874 7.92838 2.0874 8.63803V24.4203C2.0874 25.13 2.57206 25.7073 3.16774 25.7073H24.5125C25.1082 25.7073 25.5929 25.13 25.5929 24.4203V8.63803C25.5929 7.92838 25.1082 7.35107 24.5125 7.35107ZM2.77604 20.6971H3.9038C4.09395 20.6971 4.24811 20.5134 4.24811 20.2869C4.24811 20.0603 4.09395 19.8767 3.9038 19.8767H2.77604V18.1919H24.9042V19.8767H5.37564C5.18549 19.8767 5.03132 20.0603 5.03132 20.2869C5.03132 20.5134 5.18549 20.6971 5.37564 20.6971H24.9042V22.3818H2.77604V20.6971ZM14.5525 13.1816H24.9042V14.8664H14.5525V13.1816ZM14.5525 15.6868H24.9042V17.3716H14.5525V15.6868ZM24.9042 8.63803V9.85618H24.1445C23.9544 9.85618 23.8002 10.0398 23.8002 10.2664C23.8002 10.4929 23.9544 10.6765 24.1445 10.6765H24.9042V12.3613H14.5525V10.6765H22.6724C22.8625 10.6765 23.0167 10.4929 23.0167 10.2664C23.0167 10.0398 22.8625 9.85618 22.6724 9.85618H14.5525V8.17142H24.5125C24.7285 8.17142 24.9042 8.38071 24.9042 8.63803ZM3.16774 8.17142H13.8638V17.3716H2.77604V8.63803C2.77604 8.38071 2.95178 8.17142 3.16774 8.17142ZM24.5125 24.8869H3.16774C2.95173 24.8869 2.77604 24.6776 2.77604 24.4203V23.2022H24.9042V24.4203C24.9042 24.6776 24.7285 24.8869 24.5125 24.8869Z" fill="#1D1D1D"/>
<path id="Vector_2" d="M3.90768 9.68753C4.09783 9.68753 4.252 9.50388 4.252 9.27736C4.252 9.05083 4.09783 8.86719 3.90768 8.86719H3.90401C3.71385 8.86719 3.56152 9.05083 3.56152 9.27736C3.56152 9.50388 3.71748 9.68753 3.90768 9.68753Z" fill="#1D1D1D"/>
<path id="Vector_3" d="M3.90768 13.1949C4.09783 13.1949 4.252 13.0112 4.252 12.7847C4.252 12.5582 4.09783 12.3745 3.90768 12.3745H3.90401C3.71385 12.3745 3.56152 12.5582 3.56152 12.7847C3.56152 13.0112 3.71748 13.1949 3.90768 13.1949Z" fill="#1D1D1D"/>
<path id="Vector_4" d="M3.90768 16.7017C4.09783 16.7017 4.252 16.518 4.252 16.2915C4.252 16.0649 4.09783 15.8813 3.90768 15.8813H3.90401C3.71385 15.8813 3.56152 16.0649 3.56152 16.2915C3.56148 16.518 3.71748 16.7017 3.90768 16.7017Z" fill="#1D1D1D"/>
<path id="Vector_5" d="M3.90768 11.4414C4.09783 11.4414 4.252 11.2578 4.252 11.0313C4.252 10.8047 4.09783 10.6211 3.90768 10.6211H3.90401C3.71385 10.6211 3.56152 10.8047 3.56152 11.0313C3.56152 11.2578 3.71748 11.4414 3.90768 11.4414Z" fill="#1D1D1D"/>
<path id="Vector_6" d="M3.90768 14.9483C4.09783 14.9483 4.252 14.7646 4.252 14.5381C4.252 14.3115 4.09783 14.1279 3.90768 14.1279H3.90401C3.71385 14.1279 3.56152 14.3115 3.56152 14.5381C3.56148 14.7646 3.71748 14.9483 3.90768 14.9483Z" fill="#1D1D1D"/>
<path id="Vector_7" d="M12.7397 9.68753C12.9299 9.68753 13.084 9.50388 13.084 9.27736C13.084 9.05083 12.9299 8.86719 12.7397 8.86719H12.736C12.5459 8.86719 12.3936 9.05083 12.3936 9.27736C12.3936 9.50388 12.5496 9.68753 12.7397 9.68753Z" fill="#1D1D1D"/>
<path id="Vector_8" d="M12.7397 13.1949C12.9299 13.1949 13.084 13.0112 13.084 12.7847C13.084 12.5582 12.9299 12.3745 12.7397 12.3745H12.736C12.5459 12.3745 12.3936 12.5582 12.3936 12.7847C12.3936 13.0112 12.5496 13.1949 12.7397 13.1949Z" fill="#1D1D1D"/>
<path id="Vector_9" d="M12.7397 16.7017C12.9299 16.7017 13.084 16.518 13.084 16.2915C13.084 16.0649 12.9299 15.8813 12.7397 15.8813H12.736C12.5459 15.8813 12.3936 16.0649 12.3936 16.2915C12.3936 16.518 12.5496 16.7017 12.7397 16.7017Z" fill="#1D1D1D"/>
<path id="Vector_10" d="M12.7397 11.4414C12.9299 11.4414 13.084 11.2578 13.084 11.0313C13.084 10.8047 12.9299 10.6211 12.7397 10.6211H12.736C12.5459 10.6211 12.3936 10.8047 12.3936 11.0313C12.3936 11.2578 12.5496 11.4414 12.7397 11.4414Z" fill="#1D1D1D"/>
<path id="Vector_11" d="M12.7397 14.9483C12.9299 14.9483 13.084 14.7646 13.084 14.5381C13.084 14.3115 12.9299 14.1279 12.7397 14.1279H12.736C12.5459 14.1279 12.3936 14.3115 12.3936 14.5381C12.3936 14.7646 12.5496 14.9483 12.7397 14.9483Z" fill="#1D1D1D"/>
<path id="Vector_12" d="M6.11593 9.68753C6.30609 9.68753 6.46025 9.50388 6.46025 9.27736C6.46025 9.05083 6.30609 8.86719 6.11593 8.86719H6.11226C5.9221 8.86719 5.76978 9.05083 5.76978 9.27736C5.76978 9.50388 5.92577 9.68753 6.11593 9.68753Z" fill="#1D1D1D"/>
<path id="Vector_13" d="M6.11593 13.1949C6.30609 13.1949 6.46025 13.0112 6.46025 12.7847C6.46025 12.5582 6.30609 12.3745 6.11593 12.3745H6.11226C5.9221 12.3745 5.76978 12.5582 5.76978 12.7847C5.76978 13.0112 5.92577 13.1949 6.11593 13.1949Z" fill="#1D1D1D"/>
<path id="Vector_14" d="M6.11593 16.7017C6.30609 16.7017 6.46025 16.518 6.46025 16.2915C6.46025 16.0649 6.30609 15.8813 6.11593 15.8813H6.11226C5.9221 15.8813 5.76978 16.0649 5.76978 16.2915C5.76978 16.518 5.92577 16.7017 6.11593 16.7017Z" fill="#1D1D1D"/>
<path id="Vector_15" d="M6.11593 11.4414C6.30609 11.4414 6.46025 11.2578 6.46025 11.0313C6.46025 10.8047 6.30609 10.6211 6.11593 10.6211H6.11226C5.9221 10.6211 5.76978 10.8047 5.76978 11.0313C5.76978 11.2578 5.92577 11.4414 6.11593 11.4414Z" fill="#1D1D1D"/>
<path id="Vector_16" d="M6.11593 14.9483C6.30609 14.9483 6.46025 14.7646 6.46025 14.5381C6.46025 14.3115 6.30609 14.1279 6.11593 14.1279H6.11226C5.9221 14.1279 5.76978 14.3115 5.76978 14.5381C5.76978 14.7646 5.92577 14.9483 6.11593 14.9483Z" fill="#1D1D1D"/>
<path id="Vector_17" d="M5.01193 10.5645C5.20208 10.5645 5.35624 10.3808 5.35624 10.1543C5.35624 9.92779 5.20208 9.74414 5.01193 9.74414H5.00825C4.8181 9.74414 4.66577 9.92779 4.66577 10.1543C4.66577 10.3808 4.82177 10.5645 5.01193 10.5645Z" fill="#1D1D1D"/>
<path id="Vector_18" d="M5.01193 14.0713C5.20208 14.0713 5.35624 13.8877 5.35624 13.6611C5.35624 13.4346 5.20208 13.251 5.01193 13.251H5.00825C4.8181 13.251 4.66577 13.4346 4.66577 13.6611C4.66577 13.8877 4.82177 14.0713 5.01193 14.0713Z" fill="#1D1D1D"/>
<path id="Vector_19" d="M5.01193 12.3174C5.20208 12.3174 5.35624 12.1338 5.35624 11.9072C5.35624 11.6807 5.20208 11.4971 5.01193 11.4971H5.00825C4.8181 11.4971 4.66577 11.6807 4.66577 11.9072C4.66577 12.1338 4.82177 12.3174 5.01193 12.3174Z" fill="#1D1D1D"/>
<path id="Vector_20" d="M5.01193 15.8252C5.20208 15.8252 5.35624 15.6416 5.35624 15.4151C5.35624 15.1885 5.20208 15.0049 5.01193 15.0049H5.00825C4.8181 15.0049 4.66577 15.1885 4.66577 15.4151C4.66577 15.6416 4.82177 15.8252 5.01193 15.8252Z" fill="#1D1D1D"/>
<path id="Vector_21" d="M8.3232 9.68753C8.51336 9.68753 8.66752 9.50388 8.66752 9.27736C8.66752 9.05083 8.51336 8.86719 8.3232 8.86719H8.31953C8.12938 8.86719 7.97705 9.05083 7.97705 9.27736C7.97705 9.50388 8.13305 9.68753 8.3232 9.68753Z" fill="#1D1D1D"/>
<path id="Vector_22" d="M8.3232 13.1949C8.51336 13.1949 8.66752 13.0112 8.66752 12.7847C8.66752 12.5582 8.51336 12.3745 8.3232 12.3745H8.31953C8.12938 12.3745 7.97705 12.5582 7.97705 12.7847C7.97705 13.0112 8.13305 13.1949 8.3232 13.1949Z" fill="#1D1D1D"/>
<path id="Vector_23" d="M8.3232 16.7017C8.51336 16.7017 8.66752 16.518 8.66752 16.2915C8.66752 16.0649 8.51336 15.8813 8.3232 15.8813H8.31953C8.12938 15.8813 7.97705 16.0649 7.97705 16.2915C7.97705 16.518 8.13305 16.7017 8.3232 16.7017Z" fill="#1D1D1D"/>
<path id="Vector_24" d="M8.3232 11.4414C8.51336 11.4414 8.66752 11.2578 8.66752 11.0313C8.66752 10.8047 8.51336 10.6211 8.3232 10.6211H8.31953C8.12938 10.6211 7.97705 10.8047 7.97705 11.0313C7.97705 11.2578 8.13305 11.4414 8.3232 11.4414Z" fill="#1D1D1D"/>
<path id="Vector_25" d="M8.3232 14.9483C8.51336 14.9483 8.66752 14.7646 8.66752 14.5381C8.66752 14.3115 8.51336 14.1279 8.3232 14.1279H8.31953C8.12938 14.1279 7.97705 14.3115 7.97705 14.5381C7.97705 14.7646 8.13305 14.9483 8.3232 14.9483Z" fill="#1D1D1D"/>
<path id="Vector_26" d="M7.21969 10.5645C7.40985 10.5645 7.56401 10.3808 7.56401 10.1543C7.56401 9.92779 7.40985 9.74414 7.21969 9.74414H7.21597C7.02582 9.74414 6.87354 9.92779 6.87354 10.1543C6.87354 10.3808 7.02953 10.5645 7.21969 10.5645Z" fill="#1D1D1D"/>
<path id="Vector_27" d="M7.21969 14.0713C7.40985 14.0713 7.56401 13.8877 7.56401 13.6611C7.56401 13.4346 7.40985 13.251 7.21969 13.251H7.21597C7.02582 13.251 6.87354 13.4346 6.87354 13.6611C6.87354 13.8877 7.02953 14.0713 7.21969 14.0713Z" fill="#1D1D1D"/>
<path id="Vector_28" d="M7.21969 12.3174C7.40985 12.3174 7.56401 12.1338 7.56401 11.9072C7.56401 11.6807 7.40985 11.4971 7.21969 11.4971H7.21597C7.02582 11.4971 6.87354 11.6807 6.87354 11.9072C6.87354 12.1338 7.02953 12.3174 7.21969 12.3174Z" fill="#1D1D1D"/>
<path id="Vector_29" d="M7.21969 15.8252C7.40985 15.8252 7.56401 15.6416 7.56401 15.4151C7.56401 15.1885 7.40985 15.0049 7.21969 15.0049H7.21597C7.02582 15.0049 6.87354 15.1885 6.87354 15.4151C6.87354 15.6416 7.02953 15.8252 7.21969 15.8252Z" fill="#1D1D1D"/>
<path id="Vector_30" d="M10.5276 9.68753C10.7177 9.68753 10.8719 9.50388 10.8719 9.27736C10.8719 9.05083 10.7177 8.86719 10.5276 8.86719H10.5239C10.3337 8.86719 10.1814 9.05083 10.1814 9.27736C10.1814 9.50388 10.3374 9.68753 10.5276 9.68753Z" fill="#1D1D1D"/>
<path id="Vector_31" d="M10.5276 13.1949C10.7177 13.1949 10.8719 13.0112 10.8719 12.7847C10.8719 12.5582 10.7177 12.3745 10.5276 12.3745H10.5239C10.3337 12.3745 10.1814 12.5582 10.1814 12.7847C10.1814 13.0112 10.3374 13.1949 10.5276 13.1949Z" fill="#1D1D1D"/>
<path id="Vector_32" d="M10.5276 16.7017C10.7177 16.7017 10.8719 16.518 10.8719 16.2915C10.8719 16.0649 10.7177 15.8813 10.5276 15.8813H10.5239C10.3337 15.8813 10.1814 16.0649 10.1814 16.2915C10.1814 16.518 10.3374 16.7017 10.5276 16.7017Z" fill="#1D1D1D"/>
<path id="Vector_33" d="M10.5276 11.4414C10.7177 11.4414 10.8719 11.2578 10.8719 11.0313C10.8719 10.8047 10.7177 10.6211 10.5276 10.6211H10.5239C10.3337 10.6211 10.1814 10.8047 10.1814 11.0313C10.1814 11.2578 10.3374 11.4414 10.5276 11.4414Z" fill="#1D1D1D"/>
<path id="Vector_34" d="M10.5276 14.9483C10.7177 14.9483 10.8719 14.7646 10.8719 14.5381C10.8719 14.3115 10.7177 14.1279 10.5276 14.1279H10.5239C10.3337 14.1279 10.1814 14.3115 10.1814 14.5381C10.1814 14.7646 10.3374 14.9483 10.5276 14.9483Z" fill="#1D1D1D"/>
<path id="Vector_35" d="M9.42355 10.5645C9.6137 10.5645 9.76787 10.3808 9.76787 10.1543C9.76787 9.92779 9.6137 9.74414 9.42355 9.74414H9.41983C9.22967 9.74414 9.07739 9.92779 9.07739 10.1543C9.07739 10.3808 9.23339 10.5645 9.42355 10.5645Z" fill="#1D1D1D"/>
<path id="Vector_36" d="M9.42355 14.0713C9.6137 14.0713 9.76787 13.8877 9.76787 13.6611C9.76787 13.4346 9.6137 13.251 9.42355 13.251H9.41983C9.22967 13.251 9.07739 13.4346 9.07739 13.6611C9.07739 13.8877 9.23339 14.0713 9.42355 14.0713Z" fill="#1D1D1D"/>
<path id="Vector_37" d="M9.42355 12.3174C9.6137 12.3174 9.76787 12.1338 9.76787 11.9072C9.76787 11.6807 9.6137 11.4971 9.42355 11.4971H9.41983C9.22967 11.4971 9.07739 11.6807 9.07739 11.9072C9.07739 12.1338 9.23339 12.3174 9.42355 12.3174Z" fill="#1D1D1D"/>
<path id="Vector_38" d="M9.42355 15.8252C9.6137 15.8252 9.76787 15.6416 9.76787 15.4151C9.76787 15.1885 9.6137 15.0049 9.42355 15.0049H9.41983C9.22967 15.0049 9.07739 15.1885 9.07739 15.4151C9.07739 15.6416 9.23339 15.8252 9.42355 15.8252Z" fill="#1D1D1D"/>
<path id="Vector_39" d="M11.6355 10.5645C11.8256 10.5645 11.9798 10.3808 11.9798 10.1543C11.9798 9.92779 11.8256 9.74414 11.6355 9.74414H11.6318C11.4416 9.74414 11.2893 9.92779 11.2893 10.1543C11.2893 10.3808 11.4453 10.5645 11.6355 10.5645Z" fill="#1D1D1D"/>
<path id="Vector_40" d="M11.6355 14.0713C11.8256 14.0713 11.9798 13.8877 11.9798 13.6611C11.9798 13.4346 11.8256 13.251 11.6355 13.251H11.6318C11.4416 13.251 11.2893 13.4346 11.2893 13.6611C11.2893 13.8877 11.4453 14.0713 11.6355 14.0713Z" fill="#1D1D1D"/>
<path id="Vector_41" d="M11.6355 12.3174C11.8256 12.3174 11.9798 12.1338 11.9798 11.9072C11.9798 11.6807 11.8256 11.4971 11.6355 11.4971H11.6318C11.4416 11.4971 11.2893 11.6807 11.2893 11.9072C11.2893 12.1338 11.4453 12.3174 11.6355 12.3174Z" fill="#1D1D1D"/>
<path id="Vector_42" d="M11.6355 15.8252C11.8256 15.8252 11.9798 15.6416 11.9798 15.4151C11.9798 15.1885 11.8256 15.0049 11.6355 15.0049H11.6318C11.4416 15.0049 11.2893 15.1885 11.2893 15.4151C11.2893 15.6416 11.4453 15.8252 11.6355 15.8252Z" fill="#1D1D1D"/>
</g>
</g>
</svg>
