<svg width="21" height="14" viewBox="0 0 21 14" fill="none" xmlns="http://www.w3.org/2000/svg">
<path d="M16.1616 0.0169912H4.49461C2.20461 0.0169912 0.349609 1.85199 0.349609 4.11599V9.88399C0.349609 12.148 2.20561 13.984 4.49461 13.984H16.1616C18.4516 13.984 20.3066 12.148 20.3066 9.88399V4.11599C20.3066 1.85199 18.4506 0.0159912 16.1616 0.0159912V0.0169912ZM13.3586 7.27999L7.90161 9.85499C7.86833 9.87102 7.83153 9.87836 7.79464 9.87634C7.75776 9.87433 7.72198 9.86301 7.69064 9.84345C7.6593 9.82389 7.63342 9.79672 7.61541 9.76447C7.5974 9.73222 7.58783 9.69593 7.58761 9.65899V4.34999C7.58828 4.31286 7.59833 4.27651 7.61683 4.24432C7.63534 4.21212 7.66169 4.18513 7.69343 4.16587C7.72517 4.1466 7.76128 4.13568 7.79838 4.13413C7.83548 4.13258 7.87237 4.14044 7.90561 4.15699L13.3636 6.89199C13.4 6.91012 13.4305 6.93814 13.4516 6.97282C13.4728 7.0075 13.4837 7.04744 13.4832 7.08806C13.4827 7.12868 13.4707 7.16833 13.4487 7.20245C13.4266 7.23658 13.3954 7.2638 13.3586 7.28099V7.27999Z" fill="white"/>
</svg>
