<svg width="56" height="56" viewBox="0 0 56 56" fill="none" xmlns="http://www.w3.org/2000/svg">
<g clip-path="url(#clip0_38_7311)">
<path d="M47.264 25.48C49.9467 26.0913 52.3105 27.6688 53.9045 29.9116C55.4985 32.1543 56.2112 34.9053 55.9066 37.6399C55.602 40.3745 54.3014 42.9013 52.2529 44.7383C50.2045 46.5753 47.5515 47.5939 44.8 47.6H14C10.5281 47.6034 7.17883 46.3168 4.60227 43.9897C2.02571 41.6627 0.40573 38.4612 0.0568119 35.0069C-0.292106 31.5527 0.654932 28.0919 2.71408 25.2966C4.77323 22.5013 7.79757 20.5708 11.2 19.88V19.6C11.1982 18.1191 11.588 16.6641 12.3297 15.3824C13.0715 14.1007 14.1389 13.0379 15.4237 12.3017C16.7086 11.5654 18.1653 11.1819 19.6461 11.1901C21.1269 11.1982 22.5793 11.5977 23.856 12.348C25.8208 10.4066 28.3178 9.09249 31.0305 8.57229C33.7431 8.05209 36.5492 8.34924 39.0927 9.42605C41.6363 10.5029 43.8027 12.3108 45.3173 14.6206C46.8319 16.9304 47.6264 19.638 47.6 22.4C47.6 23.464 47.488 24.472 47.264 25.48Z" fill="#7B7C7E"/>
</g>
<defs>
<clipPath id="clip0_38_7311">
<rect width="56" height="56" fill="white"/>
</clipPath>
</defs>
</svg>
